<?xml version="1.0" encoding="UTF-8"?>
<svg xmlns="http://www.w3.org/2000/svg" xmlns:xlink="http://www.w3.org/1999/xlink" width="50px" height="50px" viewBox="0 0 50 50" version="1.1">
<g id="surface1">
<path style=" stroke:none;fill-rule:nonzero;fill:rgb(1.176471%,56.862745%,99.215686%);fill-opacity:1;" d="M 21.550781 8.261719 C 9.648438 8.261719 0 16.914062 0 27.585938 C 0 31.519531 1.3125 35.175781 3.566406 38.226562 C 3.269531 41.753906 2.417969 46.71875 0 49.136719 C 0 49.136719 7.300781 48.113281 12.304688 45.128906 C 12.308594 45.125 12.3125 45.121094 12.316406 45.117188 C 13.863281 44.164062 15.601562 43.050781 16.027344 42.71875 C 16.285156 42.359375 16.78125 42.25 17.167969 42.484375 C 17.425781 42.640625 17.589844 42.925781 17.589844 43.226562 C 17.59375 43.726562 17.582031 43.867188 14.441406 45.828125 C 16.667969 46.523438 19.058594 46.910156 21.550781 46.910156 C 33.453125 46.910156 43.101562 38.257812 43.101562 27.585938 C 43.101562 16.914062 33.453125 8.261719 21.550781 8.261719 Z M 21.550781 8.261719 "/>
<path style=" stroke:none;fill-rule:nonzero;fill:rgb(5.882353%,44.313725%,82.745098%);fill-opacity:1;" d="M 50 20.183594 C 50 9.511719 40.351562 0.863281 28.449219 0.863281 C 19.855469 0.863281 12.433594 5.375 8.972656 11.898438 C 12.515625 9.613281 16.855469 8.261719 21.550781 8.261719 C 33.453125 8.261719 43.105469 16.914062 43.105469 27.585938 C 43.105469 31.667969 41.6875 35.453125 39.277344 38.570312 C 44.105469 40.902344 50 41.738281 50 41.738281 C 47.582031 39.316406 46.730469 34.351562 46.433594 30.824219 C 48.6875 27.773438 50 24.117188 50 20.183594 Z M 50 20.183594 "/>
<path style=" stroke:none;fill-rule:nonzero;fill:rgb(100%,100%,100%);fill-opacity:1;" d="M 28.019531 22.414062 L 15.949219 22.414062 C 15.472656 22.414062 15.085938 22.027344 15.085938 21.550781 C 15.085938 21.074219 15.472656 20.691406 15.949219 20.691406 L 28.019531 20.691406 C 28.492188 20.691406 28.878906 21.074219 28.878906 21.550781 C 28.878906 22.027344 28.492188 22.414062 28.019531 22.414062 Z M 28.019531 22.414062 "/>
<path style=" stroke:none;fill-rule:nonzero;fill:rgb(100%,100%,100%);fill-opacity:1;" d="M 32.757812 28.449219 L 11.207031 28.449219 C 10.730469 28.449219 10.34375 28.0625 10.34375 27.585938 C 10.34375 27.109375 10.730469 26.722656 11.207031 26.722656 L 32.757812 26.722656 C 33.234375 26.722656 33.621094 27.109375 33.621094 27.585938 C 33.621094 28.0625 33.234375 28.449219 32.757812 28.449219 Z M 32.757812 28.449219 "/>
<path style=" stroke:none;fill-rule:nonzero;fill:rgb(100%,100%,100%);fill-opacity:1;" d="M 32.757812 34.480469 L 11.207031 34.480469 C 10.730469 34.480469 10.34375 34.097656 10.34375 33.621094 C 10.34375 33.144531 10.730469 32.757812 11.207031 32.757812 L 32.757812 32.757812 C 33.234375 32.757812 33.621094 33.144531 33.621094 33.621094 C 33.621094 34.097656 33.234375 34.480469 32.757812 34.480469 Z M 32.757812 34.480469 "/>
</g>
</svg>
